<?xml version="1.0" encoding="iso-8859-1"?>
<!-- Generator: Adobe Illustrator 19.0.0, SVG Export Plug-In . SVG Version: 6.00 Build 0)  -->
<svg version="1.1" id="Layer_1" xmlns="http://www.w3.org/2000/svg" xmlns:xlink="http://www.w3.org/1999/xlink" x="0px" y="0px"
	 viewBox="0 0 512 512" style="enable-background:new 0 0 512 512;" xml:space="preserve">
<g>
	<g>
		<g>
			<path d="M304.344,194.07c-4.437,4.449-4.426,11.651,0.023,16.089c2.219,2.206,5.131,3.322,8.033,3.322
				c2.924,0,5.837-1.115,8.055-3.345c4.437-4.46,4.426-11.662-0.023-16.098C315.972,189.61,308.77,189.622,304.344,194.07z"/>
			<path d="M191.681,194.185c-4.449,4.436-4.449,11.651,0,16.088c2.219,2.219,5.131,3.335,8.044,3.335s5.825-1.115,8.044-3.335
				c4.449-4.449,4.449-11.651,0-16.098C203.321,189.736,196.119,189.736,191.681,194.185z"/>
			<path d="M255.92,77.653c6.292-0.011,11.378-5.109,11.366-11.389c-0.011-6.282-5.109-11.378-11.389-11.366
				c-6.281,0.011-11.366,5.109-11.366,11.389C244.543,72.567,249.64,77.665,255.92,77.653z"/>
			<path d="M256.091,236.942c0.034,0,0.057,0,0.091,0c0.011,0,0.011,0,0.023,0c6.281-0.011,11.366-5.12,11.355-11.402
				c-0.023-6.279-5.12-11.365-11.412-11.354c-0.08,0-0.159,0-0.239,0c-6.235,0.046-11.287,5.12-11.287,11.378
				c0,6.281,5.097,11.378,11.378,11.378C256.034,236.942,256.057,236.942,256.091,236.942z"/>
			<path d="M199.657,101.046c2.924,0,5.837-1.104,8.055-3.334c4.437-4.449,4.437-11.651-0.011-16.088
				c-4.449-4.437-11.651-4.437-16.088,0.011s-4.437,11.651,0.011,16.088C193.843,99.942,196.756,101.046,199.657,101.046z"/>
			<path d="M335.667,157.161c6.281-0.011,11.366-5.109,11.355-11.402c-0.011-6.281-5.109-11.365-11.401-11.354
				c-6.281,0.011-11.366,5.109-11.355,11.401C324.278,152.087,329.375,157.173,335.667,157.161z"/>
			<path d="M176.344,134.588c-6.281,0-11.366,5.096-11.366,11.378c0,6.291,5.097,11.378,11.389,11.378
				c6.281,0,11.366-5.097,11.366-11.389C187.733,139.672,182.636,134.588,176.344,134.588z"/>
			<path d="M500.622,337.636H357.22c-4.186-16.334-19.031-28.444-36.651-28.444h-1.991v-41.948
				c43.89-22.731,73.956-68.581,73.956-121.324C392.533,70.635,331.284,9.387,256,9.387S119.467,70.635,119.467,145.92
				c0,52.743,30.066,98.593,73.956,121.324v41.948h-1.991c-17.621,0-32.465,12.111-36.651,28.444H11.378
				C5.094,337.636,0,342.731,0,349.013v113.778c0,6.283,5.094,11.378,11.378,11.378H154.78c4.186,16.334,19.03,28.444,36.651,28.444
				h129.138c17.621,0,32.465-12.111,36.651-28.444h143.402c6.284,0,11.378-5.095,11.378-11.378V349.013
				C512,342.731,506.906,337.636,500.622,337.636z M153.6,451.413H22.756v-91.022H153.6V451.413z M142.222,145.92
				c0-62.738,51.041-113.778,113.778-113.778s113.778,51.04,113.778,113.778S318.737,259.698,256,259.698
				S142.222,208.658,142.222,145.92z M295.822,276.523v32.668h-79.644v-32.668c12.604,3.851,25.974,5.93,39.822,5.93
				S283.218,280.375,295.822,276.523z M335.644,349.013v89.316h-39.822c-6.284,0-11.378,5.095-11.378,11.378
				c0,6.283,5.094,11.378,11.378,11.378h39.822v1.707v1.991c0,8.313-6.763,15.076-15.076,15.076H191.431
				c-8.313,0-15.076-6.763-15.076-15.076v-1.991v-75.662H204.8c6.284,0,11.378-5.095,11.378-11.378
				c0-6.283-5.094-11.378-11.378-11.378h-28.444v-15.36v-1.991c0-8.313,6.763-15.076,15.076-15.076H204.8h102.4h13.369
				c8.313,0,15.076,6.763,15.076,15.076V349.013z M489.244,451.413H358.4v-91.022h130.844V451.413z"/>
			<path d="M247.955,153.966c2.222,2.221,5.134,3.333,8.045,3.333s5.824-1.112,8.045-3.333l56.067-56.067
				c0.898-0.898,1.604-1.911,2.14-2.989c2.302-4.311,1.635-9.793-2.003-13.42c-0.011,0-0.011,0-0.011,0
				c-4.437-4.437-11.651-4.427-16.088,0.033c-0.361,0.361-0.682,0.746-0.984,1.141l-55.212,55.211
				C243.512,142.318,243.512,149.522,247.955,153.966z"/>
			<path d="M271.456,364.373h-18.963c-6.284,0-11.378,5.095-11.378,11.378c0,6.283,5.094,11.378,11.378,11.378h18.963
				c6.284,0,11.378-5.095,11.378-11.378C282.833,369.468,277.74,364.373,271.456,364.373z"/>
		</g>
	</g>
</g>
<g>
</g>
<g>
</g>
<g>
</g>
<g>
</g>
<g>
</g>
<g>
</g>
<g>
</g>
<g>
</g>
<g>
</g>
<g>
</g>
<g>
</g>
<g>
</g>
<g>
</g>
<g>
</g>
<g>
</g>
</svg>
