<?xml version="1.0" encoding="iso-8859-1"?>
<!-- Generator: Adobe Illustrator 19.0.0, SVG Export Plug-In . SVG Version: 6.00 Build 0)  -->
<svg version="1.1" id="Layer_1" xmlns="http://www.w3.org/2000/svg" xmlns:xlink="http://www.w3.org/1999/xlink" x="0px" y="0px"
	 viewBox="0 0 503.607 503.607" style="enable-background:new 0 0 503.607 503.607;" xml:space="preserve">
<g transform="translate(1 1)">
	<g>
		<g>
			<path d="M343.131,259.197h-67.148c-5.036,0-8.393,3.357-8.393,8.393v83.934c0,5.036,3.357,8.393,8.393,8.393
				s8.393-3.357,8.393-8.393v-75.541h58.754c5.036,0,8.393-3.357,8.393-8.393S348.167,259.197,343.131,259.197z"/>
			<path d="M376.705,259.197c-4.197,0-8.393,4.197-8.393,8.393c0,5.036,3.357,8.393,8.393,8.393c5.036,0,8.393-3.357,8.393-8.393
				S381.741,259.197,376.705,259.197z"/>
			<path d="M485.82,158.475h-33.574c-9.233,0-16.787,7.554-16.787,16.787v8.393H317.951V66.148h8.393
				c9.233,0,16.787-7.554,16.787-16.787V15.787C343.131,6.554,335.577-1,326.344-1H175.262c-9.233,0-16.787,7.554-16.787,16.787
				v33.574c0,9.233,7.554,16.787,16.787,16.787h8.393v117.508H66.148v-8.393c0-9.233-7.554-16.787-16.787-16.787H15.787
				C6.554,158.475-1,166.03-1,175.262v151.082c0,9.233,7.554,16.787,16.787,16.787h33.574c9.233,0,16.787-7.554,16.787-16.787
				v-8.393h117.508v117.508h-8.393c-9.233,0-16.787,7.554-16.787,16.787v33.574c0,9.233,7.554,16.787,16.787,16.787h151.082
				c9.233,0,16.787-7.554,16.787-16.787v-33.574c0-9.233-7.554-16.787-16.787-16.787h-8.393V317.951h117.508v8.393
				c0,9.233,7.554,16.787,16.787,16.787h33.574c9.233,0,16.787-7.554,16.787-16.787V175.262
				C502.607,166.03,495.052,158.475,485.82,158.475z M175.262,15.787h151.082v33.574h-16.787H192.049h-16.787V15.787z
				 M49.361,326.344H15.787V175.262h33.574v16.787v117.508V326.344z M326.344,485.82H175.262v-33.574h16.787h117.508h16.787V485.82z
				 M309.557,301.164c-5.036,0-8.393,3.357-8.393,8.393v125.902h-16.787v-33.574c0-5.036-3.357-8.393-8.393-8.393
				s-8.393,3.357-8.393,8.393v33.574h-67.148V309.557c0-5.036-3.357-8.393-8.393-8.393H66.148V200.443h125.902
				c5.036,0,8.393-3.357,8.393-8.393V66.148h100.721v125.902c0,5.036,3.357,8.393,8.393,8.393h125.902v58.754h-25.18
				c-5.036,0-8.393,3.357-8.393,8.393s3.357,8.393,8.393,8.393h25.18v25.18H309.557z M485.82,326.344h-33.574v-16.787V192.049
				v-16.787h33.574V326.344z"/>
		</g>
	</g>
</g>
<g>
</g>
<g>
</g>
<g>
</g>
<g>
</g>
<g>
</g>
<g>
</g>
<g>
</g>
<g>
</g>
<g>
</g>
<g>
</g>
<g>
</g>
<g>
</g>
<g>
</g>
<g>
</g>
<g>
</g>
</svg>
