<?xml version="1.0" encoding="iso-8859-1"?>
<!-- Generator: Adobe Illustrator 19.0.0, SVG Export Plug-In . SVG Version: 6.00 Build 0)  -->
<svg version="1.1" id="Layer_1" xmlns="http://www.w3.org/2000/svg" xmlns:xlink="http://www.w3.org/1999/xlink" x="0px" y="0px"
	 viewBox="0 0 512 512" style="enable-background:new 0 0 512 512;" xml:space="preserve">
<g>
	<g>
		<path d="M341.511,247.983h-57.286l47.789-143.369c1.144-3.433-0.221-7.31-3.261-9.272c-3.135-2.021-7.374-1.573-10.012,1.067
			L164.82,250.331c-2.293,2.294-2.979,5.741-1.738,8.737c1.241,2.996,4.164,4.949,7.406,4.949h57.286l-47.789,143.369
			c-1.073,3.221,0.055,6.869,2.759,8.92c3.153,2.392,7.716,2.082,10.515-0.715L347.18,261.669
			C352.126,256.723,348.5,247.983,341.511,247.983z M205.935,380.239l40.569-121.703c1.703-5.11-2.228-10.552-7.605-10.552h-49.056
			l116.222-116.222l-40.569,121.703c-1.703,5.11,2.228,10.552,7.605,10.552h49.056L205.935,380.239z"/>
	</g>
</g>
<g>
	<g>
		<path d="M446.692,85.196l20.204-20.203c4.946-4.948,1.32-13.686-5.668-13.686h-85.511c-4.427,0-8.017,3.588-8.017,8.017v85.511
			c0,6.986,8.738,10.617,13.685,5.669l23.649-23.65c31.128,35.868,48.177,81.409,48.177,129.146
			c0,108.742-88.469,197.211-197.211,197.211S58.789,364.742,58.789,256S147.258,58.789,256,58.789c4.427,0,8.017-3.588,8.017-8.017
			c0-4.428-3.589-8.017-8.017-8.017C138.416,42.756,42.756,138.416,42.756,256S138.416,469.244,256,469.244
			S469.244,373.584,469.244,256c0-54.604-20.63-106.553-58.088-146.273c-3.062-3.246-8.347-3.322-11.501-0.169l-15.922,15.923V67.34
			h58.14l-11.968,11.967c-3.077,3.077-3.137,8.048-0.136,11.199c42.688,44.809,66.198,103.582,66.198,165.494
			c0,132.318-107.648,239.967-239.967,239.967S16.033,388.318,16.033,256S123.682,16.033,256,16.033
			c4.427,0,8.017-3.588,8.017-8.017C264.017,3.588,260.427,0,256,0C187.62,0,123.333,26.628,74.981,74.981
			C26.629,123.333,0,187.62,0,256s26.629,132.667,74.981,181.019C123.333,485.372,187.62,512,256,512s132.667-26.628,181.019-74.981
			C485.371,388.667,512,324.38,512,256C512,192.569,488.865,132.222,446.692,85.196z"/>
	</g>
</g>
<g>
	<g>
		<path d="M255.445,136.02c-0.311-4.417-4.145-7.736-8.561-7.432c-32.172,2.27-62.063,16.531-84.169,40.155
			c-22.215,23.74-34.448,54.727-34.448,87.257c0,37.826,16.626,73.487,45.614,97.841c1.503,1.263,3.333,1.879,5.153,1.879
			c7.342,0,10.757-9.453,5.161-14.154c-25.353-21.301-39.894-52.488-39.894-85.566c0-58.372,45.556-107.314,103.713-111.418
			C252.43,144.27,255.757,140.437,255.445,136.02z"/>
	</g>
</g>
<g>
	<g>
		<path d="M282.911,87.625c-8.837-1.402-17.891-2.113-26.911-2.113c-26.789,0-52.435,6.038-76.225,17.95
			c-3.656,1.829-5.363,6.266-3.882,10.074c1.687,4.338,6.891,6.35,11.059,4.262c21.544-10.784,44.775-16.253,69.048-16.253
			c8.181,0,16.389,0.645,24.398,1.914c4.373,0.697,8.481-2.289,9.174-6.661C290.266,92.425,287.283,88.317,282.911,87.625z"/>
	</g>
</g>
<g>
	<g>
		<path d="M166.584,381.956c-40.725-28.965-65.039-76.052-65.039-125.956c0-46.613,20.742-90.265,56.908-119.76
			c3.431-2.798,3.944-7.849,1.146-11.28c-2.797-3.43-7.848-3.942-11.279-1.146C108.404,156.367,85.511,204.547,85.511,256
			c0,55.084,26.833,107.055,71.779,139.023c3.847,2.734,9.366,1.474,11.657-2.643C170.908,388.858,169.865,384.291,166.584,381.956z
			"/>
	</g>
</g>
<g>
	<g>
		<path d="M330.985,349.671c-2.533-3.63-7.529-4.52-11.161-1.988C301.05,360.777,278.98,367.699,256,367.699
			c-4.427,0-8.017,3.588-8.017,8.017c0,4.428,3.589,8.017,8.017,8.017c26.277,0,51.519-7.918,72.996-22.9
			C332.627,358.299,333.517,353.302,330.985,349.671z"/>
	</g>
</g>
<g>
	<g>
		<path d="M338.119,158.159c-3.391-2.849-8.446-2.408-11.295,0.981c-2.848,3.389-2.408,8.446,0.981,11.294
			c25.353,21.301,39.894,52.488,39.894,85.566c0,26.245-9.281,51.744-26.133,71.804c-2.586,3.076-2.453,7.749,0.315,10.668
			c3.249,3.426,8.924,3.261,11.961-0.354c19.275-22.944,29.891-52.107,29.891-82.118
			C383.733,218.174,367.107,182.513,338.119,158.159z"/>
	</g>
</g>
<g>
	<g>
		<path d="M400.987,166.263c-2.333-3.764-7.276-4.919-11.038-2.588c-3.763,2.334-4.921,7.276-2.587,11.038
			c15.108,24.36,23.093,52.468,23.093,81.286c0,85.167-69.288,154.455-154.455,154.455c-8.181,0-16.389-0.645-24.397-1.914
			c-4.372-0.693-8.481,2.288-9.174,6.661c-0.694,4.373,2.289,8.481,6.661,9.173c8.837,1.402,17.89,2.113,26.91,2.113
			c94.008,0,170.489-76.481,170.489-170.489C426.489,224.193,417.67,193.163,400.987,166.263z"/>
	</g>
</g>
<g>
</g>
<g>
</g>
<g>
</g>
<g>
</g>
<g>
</g>
<g>
</g>
<g>
</g>
<g>
</g>
<g>
</g>
<g>
</g>
<g>
</g>
<g>
</g>
<g>
</g>
<g>
</g>
<g>
</g>
</svg>
