<?xml version="1.0" encoding="iso-8859-1"?>
<!-- Generator: Adobe Illustrator 19.0.0, SVG Export Plug-In . SVG Version: 6.00 Build 0)  -->
<svg version="1.1" id="Capa_1" xmlns="http://www.w3.org/2000/svg" xmlns:xlink="http://www.w3.org/1999/xlink" x="0px" y="0px"
	 viewBox="0 0 512 512" style="enable-background:new 0 0 512 512;" xml:space="preserve">
<g>
	<g>
		<path d="M498.221,365.781L220.888,88.448c-3.051-3.029-7.68-3.968-11.627-2.304c-3.989,1.643-6.592,5.547-6.592,9.856v405.333
			c0,4.395,2.709,8.341,6.784,9.941c1.28,0.491,2.603,0.725,3.883,0.725c2.944,0,5.803-1.216,7.851-3.456L335.362,384h155.307
			c4.309,0,8.213-2.603,9.856-6.592C502.168,373.419,501.25,368.853,498.221,365.781z"/>
	</g>
</g>
<g>
	<g>
		<g>
			<path d="M42.669,0H21.336c-5.888,0-10.667,4.779-10.667,10.667V32c0,5.888,4.779,10.667,10.667,10.667S32.002,37.888,32.002,32
				V21.333h10.667c5.888,0,10.667-4.779,10.667-10.667S48.557,0,42.669,0z"/>
			<path d="M128.002,341.333H85.336c-5.888,0-10.667,4.779-10.667,10.667c0,5.888,4.779,10.667,10.667,10.667h42.667
				c5.888,0,10.667-4.779,10.667-10.667C138.669,346.112,133.89,341.333,128.002,341.333z"/>
			<path d="M42.669,341.333H32.002v-10.667c0-5.888-4.779-10.667-10.667-10.667s-10.667,4.779-10.667,10.667V352
				c0,5.888,4.779,10.667,10.667,10.667h21.333c5.888,0,10.667-4.779,10.667-10.667C53.336,346.112,48.557,341.333,42.669,341.333z"
				/>
			<path d="M21.336,128c5.888,0,10.667-4.779,10.667-10.667V74.667C32.002,68.779,27.224,64,21.336,64s-10.667,4.779-10.667,10.667
				v42.667C10.669,123.221,15.448,128,21.336,128z"/>
			<path d="M128.002,0H85.336c-5.888,0-10.667,4.779-10.667,10.667s4.779,10.667,10.667,10.667h42.667
				c5.888,0,10.667-4.779,10.667-10.667S133.89,0,128.002,0z"/>
			<path d="M21.336,298.667c5.888,0,10.667-4.779,10.667-10.667v-42.667c0-5.888-4.779-10.667-10.667-10.667
				s-10.667,4.779-10.667,10.667V288C10.669,293.888,15.448,298.667,21.336,298.667z"/>
			<path d="M21.336,213.333c5.888,0,10.667-4.779,10.667-10.667V160c0-5.888-4.779-10.667-10.667-10.667S10.669,154.112,10.669,160
				v42.667C10.669,208.555,15.448,213.333,21.336,213.333z"/>
			<path d="M362.669,64c-5.888,0-10.667,4.779-10.667,10.667v42.667c0,5.888,4.779,10.667,10.667,10.667s10.667-4.779,10.667-10.667
				V74.667C373.336,68.779,368.557,64,362.669,64z"/>
			<path d="M213.336,341.333h-42.667c-5.888,0-10.667,4.779-10.667,10.667c0,5.888,4.779,10.667,10.667,10.667h42.667
				c5.888,0,10.667-4.779,10.667-10.667C224.002,346.112,219.224,341.333,213.336,341.333z"/>
			<path d="M362.669,0h-21.333c-5.888,0-10.667,4.779-10.667,10.667s4.779,10.667,10.667,10.667h10.667V32
				c0,5.888,4.779,10.667,10.667,10.667S373.336,37.888,373.336,32V10.667C373.336,4.779,368.557,0,362.669,0z"/>
			<path d="M362.669,149.333c-5.888,0-10.667,4.779-10.667,10.667v42.667c0,5.888,4.779,10.667,10.667,10.667
				s10.667-4.779,10.667-10.667V160C373.336,154.112,368.557,149.333,362.669,149.333z"/>
			<path d="M213.336,0h-42.667c-5.888,0-10.667,4.779-10.667,10.667s4.779,10.667,10.667,10.667h42.667
				c5.888,0,10.667-4.779,10.667-10.667S219.224,0,213.336,0z"/>
			<path d="M298.669,0h-42.667c-5.888,0-10.667,4.779-10.667,10.667s4.779,10.667,10.667,10.667h42.667
				c5.888,0,10.667-4.779,10.667-10.667S304.557,0,298.669,0z"/>
		</g>
	</g>
</g>
<g>
</g>
<g>
</g>
<g>
</g>
<g>
</g>
<g>
</g>
<g>
</g>
<g>
</g>
<g>
</g>
<g>
</g>
<g>
</g>
<g>
</g>
<g>
</g>
<g>
</g>
<g>
</g>
<g>
</g>
</svg>
