<?xml version="1.0" encoding="iso-8859-1"?>
<!-- Generator: Adobe Illustrator 19.0.0, SVG Export Plug-In . SVG Version: 6.00 Build 0)  -->
<svg version="1.1" id="Capa_1" xmlns="http://www.w3.org/2000/svg" xmlns:xlink="http://www.w3.org/1999/xlink" x="0px" y="0px"
	 viewBox="0 0 512 512" style="enable-background:new 0 0 512 512;" xml:space="preserve">
<g>
	<g>
		<path d="M459.312,132.688l-128-128C328.32,1.68,324.256,0,320,0h-64v32h48v112c0,8.832,7.152,16,16,16h112v320H80V32h16V0H64
			c-8.848,0-16,7.168-16,16v480c0,8.832,7.152,16,16,16h384c8.848,0,16-7.168,16-16V144C464,139.76,462.32,135.68,459.312,132.688z
			 M336,128V54.624L409.376,128H336z"/>
	</g>
</g>
<g>
	<g>
		<path d="M208,0h-64c-8.848,0-16,7.168-16,16v256c0,2.48,0.576,4.944,1.68,7.152l32,64C164.4,348.576,169.936,352,176,352
			s11.6-3.424,14.32-8.848l32-64c1.104-2.208,1.68-4.672,1.68-7.152V16C224,7.168,216.848,0,208,0z M192,268.224l-16,32l-16-32V96
			h32V268.224z M192,64h-32V32h32V64z"/>
	</g>
</g>
<g>
	<g>
		<rect x="240" y="320" width="160" height="32"/>
	</g>
</g>
<g>
	<g>
		<rect x="272" y="256" width="128" height="32"/>
	</g>
</g>
<g>
	<g>
		<rect x="272" y="192" width="128" height="32"/>
	</g>
</g>
<g>
	<g>
		<rect x="176" y="384" width="224" height="32"/>
	</g>
</g>
<g>
	<g>
		<rect x="112" y="384" width="32" height="32"/>
	</g>
</g>
<g>
</g>
<g>
</g>
<g>
</g>
<g>
</g>
<g>
</g>
<g>
</g>
<g>
</g>
<g>
</g>
<g>
</g>
<g>
</g>
<g>
</g>
<g>
</g>
<g>
</g>
<g>
</g>
<g>
</g>
</svg>
