<?xml version="1.0" encoding="iso-8859-1"?>
<!-- Generator: Adobe Illustrator 18.1.1, SVG Export Plug-In . SVG Version: 6.00 Build 0)  -->
<svg version="1.1" id="Capa_1" xmlns="http://www.w3.org/2000/svg" xmlns:xlink="http://www.w3.org/1999/xlink" x="0px" y="0px"
	 viewBox="0 0 791.911 791.911" style="enable-background:new 0 0 791.911 791.911;" xml:space="preserve">
<g>
	<path d="M641.43,0H150.481c-25.924,0-46.964,21.129-46.964,46.964v697.983c0,25.924,21.129,46.964,46.964,46.964H641.43
		c25.924,0,46.964-21.13,46.964-46.964V46.964C688.395,21.129,667.354,0,641.43,0z M652.972,745.036
		c0,6.747-4.794,11.541-11.541,11.541H150.481c-6.747,0-11.541-4.794-11.541-11.541V46.964c0-6.747,4.794-11.541,11.541-11.541
		H641.43c6.747,0,11.541,4.794,11.541,11.541V745.036z M571.472,556.113c0,9.588-7.635,17.223-17.223,17.223H333.633
		c-9.588,0-17.223-7.635-17.223-17.223s7.635-17.223,17.223-17.223H554.16C562.861,537.914,571.472,546.525,571.472,556.113z
		 M571.472,662.56c0,9.588-7.635,17.223-17.223,17.223H333.633c-9.588,0-17.223-7.635-17.223-17.223
		c0-9.588,7.635-17.223,17.223-17.223H554.16C562.861,644.36,571.472,652.972,571.472,662.56z M571.472,450.644
		c0,9.588-7.635,17.223-17.223,17.223H333.633c-9.588,0-17.223-7.635-17.223-17.223s7.635-17.223,17.223-17.223H554.16
		C562.861,433.42,571.472,441.056,571.472,450.644z M571.472,346.15c0,9.588-7.635,17.223-17.223,17.223H333.633
		c-9.588,0-17.223-7.635-17.223-17.223c0-9.588,7.635-17.223,17.223-17.223H554.16C562.861,328.927,571.472,336.562,571.472,346.15z
		 M315.433,241.657c0-9.588,7.635-17.223,17.223-17.223h218.575c9.588,0,17.223,7.635,17.223,17.223s-7.635,17.223-17.223,17.223
		H332.745C323.157,258.88,315.433,251.245,315.433,241.657z M315.433,136.187c0-9.588,7.635-17.223,17.223-17.223h218.575
		c9.588,0,17.223,7.635,17.223,17.223c0,9.588-7.635,17.223-17.223,17.223H332.745C323.157,154.387,315.433,145.776,315.433,136.187
		z M252.133,136.187c0,10.565-8.612,19.176-19.176,19.176c-10.565,0-19.176-8.612-19.176-19.176
		c0-10.565,8.612-19.176,19.176-19.176C243.522,117.011,252.133,125.623,252.133,136.187z M252.133,241.657
		c0,10.565-8.612,19.176-19.176,19.176c-10.565,0-19.176-8.612-19.176-19.176s8.612-19.176,19.176-19.176
		C243.522,221.504,252.133,230.116,252.133,241.657z M252.133,344.197c0,10.565-8.612,19.176-19.176,19.176
		c-10.565,0-19.176-8.612-19.176-19.176s8.612-19.176,19.176-19.176C243.522,324.133,252.133,332.745,252.133,344.197z
		 M252.133,448.779c0,10.565-8.612,19.176-19.176,19.176c-10.565,0-19.176-8.612-19.176-19.176c0-10.565,8.612-19.176,19.176-19.176
		C243.522,429.603,252.133,438.215,252.133,448.779z M252.133,557.09c0,10.565-8.612,19.176-19.176,19.176
		c-10.565,0-19.176-8.612-19.176-19.176c0-10.565,8.612-19.176,19.176-19.176C243.522,537.914,252.133,546.525,252.133,557.09z
		 M252.133,662.56c0,10.565-8.612,19.176-19.176,19.176c-10.565,0-19.176-8.612-19.176-19.176c0-10.565,8.612-19.176,19.176-19.176
		C243.522,642.407,252.133,651.995,252.133,662.56z"/>
</g>
<g>
</g>
<g>
</g>
<g>
</g>
<g>
</g>
<g>
</g>
<g>
</g>
<g>
</g>
<g>
</g>
<g>
</g>
<g>
</g>
<g>
</g>
<g>
</g>
<g>
</g>
<g>
</g>
<g>
</g>
</svg>
