<?xml version="1.0" encoding="UTF-8"?>
<!DOCTYPE svg PUBLIC "-//W3C//DTD SVG 1.1//EN" "http://www.w3.org/Graphics/SVG/1.1/DTD/svg11.dtd">
<!-- Creator: CorelDRAW X8 -->
<svg xmlns="http://www.w3.org/2000/svg" xml:space="preserve" width="8.5in" height="11in" version="1.1" style="shape-rendering:geometricPrecision; text-rendering:geometricPrecision; image-rendering:optimizeQuality; fill-rule:evenodd; clip-rule:evenodd"
viewBox="0 0 8500 11000"
 xmlns:xlink="http://www.w3.org/1999/xlink">
 <defs>
  <style type="text/css">
   <![CDATA[
    .fil0 {fill:black}
   ]]>
  </style>
 </defs>
 <g id="Layer_x0020_1">
  <metadata id="CorelCorpID_0Corel-Layer"/>
  <g id="_830959088">
   <g id="Layer_1_66_">
    <g>
     <path class="fil0" d="M7982 27l-7464 0c-275,0 -497,223 -497,497l0 9952c0,274 223,497 497,497l7464 0c275,0 497,-223 497,-498l0 -9951c0,-274 -222,-497 -497,-497zm-498 995l0 1492 -6468 0 0 -1492 6468 0zm-6468 8956l0 -6469 6468 0 0 6468 -6468 0 0 1z"/>
     <path class="fil0" d="M2795 3950l-1033 0c-137,0 -249,111 -249,248l0 1034c0,137 112,249 249,249l1033 0c137,0 249,-112 249,-249l0 -1034c0,-137 -111,-248 -249,-248z"/>
     <path class="fil0" d="M4766 3950l-1033 0c-137,0 -248,111 -248,248l0 1034c0,137 111,249 248,249l1033 0c138,0 249,-112 249,-249l0 -1034c0,-137 -111,-248 -249,-248z"/>
     <path class="fil0" d="M6738 3950l-1033 0c-138,0 -249,111 -249,248l0 1034c0,137 112,249 249,249l1033 0c137,0 248,-112 248,-249l0 -1034c0,-137 -111,-248 -248,-248z"/>
     <path class="fil0" d="M2795 5978l-1033 0c-137,0 -249,112 -249,249l0 1034c0,137 112,248 249,248l1033 0c137,0 249,-111 249,-248l0 -1034c0,-138 -111,-249 -249,-249z"/>
     <path class="fil0" d="M4766 5978l-1033 0c-137,0 -248,112 -248,249l0 1034c0,137 111,248 248,248l1033 0c138,0 249,-111 249,-248l0 -1034c0,-138 -111,-249 -249,-249z"/>
     <path class="fil0" d="M2795 8007l-1033 0c-137,0 -249,112 -249,248l0 1034c0,138 112,249 249,249l1033 0c137,0 249,-112 249,-249l0 -1034c0,-137 -111,-248 -249,-248z"/>
     <path class="fil0" d="M4766 8007l-1033 0c-137,0 -248,112 -248,248l0 1034c0,138 111,249 248,249l1033 0c138,0 249,-112 249,-249l0 -1034c0,-137 -111,-248 -249,-248z"/>
     <path class="fil0" d="M6738 5978l-1033 0c-138,0 -249,112 -249,249l0 3062c0,138 112,249 249,249l1033 0c137,0 248,-112 248,-249l0 -3062c0,-138 -111,-249 -248,-249z"/>
    </g>
   </g>
  </g>
  <g id="_831020176">
  </g>
  <g id="_831019888">
  </g>
  <g id="_831019600">
  </g>
  <g id="_831019312">
  </g>
  <g id="_831019024">
  </g>
  <g id="_831018736">
  </g>
  <g id="_831018448">
  </g>
  <g id="_831018160">
  </g>
  <g id="_831017872">
  </g>
  <g id="_831017584">
  </g>
  <g id="_831017296">
  </g>
  <g id="_831017008">
  </g>
  <g id="_831016720">
  </g>
  <g id="_831016432">
  </g>
  <g id="_828395936">
  </g>
 </g>
</svg>
