<?xml version="1.0" encoding="iso-8859-1"?>
<!-- Generator: Adobe Illustrator 18.0.0, SVG Export Plug-In . SVG Version: 6.00 Build 0)  -->
<!DOCTYPE svg PUBLIC "-//W3C//DTD SVG 1.1//EN" "http://www.w3.org/Graphics/SVG/1.1/DTD/svg11.dtd">
<svg version="1.1" id="Capa_1" xmlns="http://www.w3.org/2000/svg" xmlns:xlink="http://www.w3.org/1999/xlink" x="0px" y="0px"
	 viewBox="0 0 227.786 227.786" style="enable-background:new 0 0 227.786 227.786;" xml:space="preserve">
<path d="M113.892,0C51.092,0,0.001,51.092,0.001,113.894v106.393c0,4.142,3.357,7.5,7.5,7.5h212.783c4.143,0,7.5-3.358,7.5-7.5
	V113.894C227.785,51.092,176.693,0,113.892,0z M114.027,120.098c-0.26-3.616-1.546-6.688-2.579-9.157l-0.146-0.349
	c-0.854-2.055-1.563-4.191-2.108-6.352c-1.74-6.892-1.909-13.962-0.481-20.469c0.685-3.166,1.915-6.454,3.761-10.048
	c0.115-0.224,0.236-0.449,0.363-0.674c5.137,14.051,17.091,31.253,27.855,46.744c2.595,3.734,5.046,7.262,7.207,10.478
	c3.503,5.189,6.297,10.7,8.306,16.381c3.598,10.153,4.47,20.437,2.521,29.742c-2.549,12.199-10.13,22.976-20.798,29.567
	c-0.079,0.049-0.15,0.105-0.228,0.157c-7.133,4.359-15.358,6.668-23.805,6.668c-8.532,0-16.853-2.357-24.065-6.815
	c-13.608-8.42-21.754-23.002-21.788-39.003c0-14.057,6.55-27.333,17.408-35.935c2.934,3.678,7.388,5.88,12.498,5.88
	c4.396,0,8.695-1.892,11.799-5.19C112.768,128.511,114.291,124.411,114.027,120.098z M212.785,212.786h-58.956
	c9.902-8.654,16.873-20.378,19.578-33.32c2.512-11.997,1.452-25.076-3.063-37.819c-2.431-6.874-5.8-13.525-10.005-19.755
	c-2.218-3.3-4.701-6.874-7.331-10.658c-10.874-15.649-25.767-37.08-27.605-48.836c-0.691-4.313-3.74-7.726-7.956-8.905
	c-4.216-1.178-8.592,0.155-11.423,3.484l0.007,0.006c-1.841,1.991-4.916,6.026-6.899,9.884c-2.454,4.777-4.116,9.27-5.077,13.712
	c-1.918,8.746-1.712,18.198,0.595,27.332c0.724,2.868,1.666,5.707,2.807,8.449l0.155,0.373c0.688,1.641,1.337,3.193,1.447,4.351
	c-0.065,0.29-0.671,0.829-1.111,0.829c-0.613,0-0.893,0-1.103-1.095c-0.569-2.96-2.546-5.47-5.285-6.715
	c-2.729-1.24-5.908-1.079-8.526,0.448c-18.5,10.876-29.992,30.961-29.992,52.433c0.038,17.852,7.678,34.36,20.831,45.802h-58.87
	v-98.893C15.001,59.363,59.364,15,113.892,15c54.529,0,98.893,44.363,98.893,98.894V212.786z"/>
<g>
</g>
<g>
</g>
<g>
</g>
<g>
</g>
<g>
</g>
<g>
</g>
<g>
</g>
<g>
</g>
<g>
</g>
<g>
</g>
<g>
</g>
<g>
</g>
<g>
</g>
<g>
</g>
<g>
</g>
</svg>
