<?xml version="1.0" encoding="iso-8859-1"?>
<!-- Generator: Adobe Illustrator 18.1.1, SVG Export Plug-In . SVG Version: 6.00 Build 0)  -->
<svg version="1.1" id="Capa_1" xmlns="http://www.w3.org/2000/svg" xmlns:xlink="http://www.w3.org/1999/xlink" x="0px" y="0px"
	 viewBox="0 0 304.223 304.223" style="enable-background:new 0 0 304.223 304.223;" xml:space="preserve">
<g>
	<g>
		<path style="fill:#010002;" d="M152.112,0C68.241,0,0.008,68.244,0.008,152.109c0,83.87,68.233,152.114,152.103,152.114
			c83.865,0,152.103-68.244,152.103-152.114C304.215,68.244,235.982,0,152.112,0z M152.112,275.984
			c-68.32,0-123.891-55.565-123.891-123.875c0-68.326,55.571-123.886,123.891-123.886s123.891,55.56,123.891,123.886
			C276.003,220.418,220.432,275.984,152.112,275.984z"/>
		<g>
			<path style="fill:#010002;" d="M174.961,219.439c0,0,71.687-31.596,24.302-93.563c0,0-7.288,15.8-24.302,12.151
				c0,0,30.377-54.673-34.016-61.967c0,0,7.283,34.027-23.089,59.536c-30.377,25.515-20.658,78.981,14.577,89.908
				c0,0-4.781-31.59,18.874-59.536C151.307,165.973,160.384,212.145,174.961,219.439z"/>
			<path style="fill:#010002;" d="M132.453,226.004c-0.007,0-0.014,0-0.02,0c-0.05,0-0.1-0.008-0.148-0.022
				c-16.182-5.019-28.107-19.247-31.901-38.061c-4.073-20.205,2.498-40.401,17.15-52.708c29.779-25.011,22.994-58.711,22.922-59.049
				c-0.034-0.157,0.01-0.321,0.119-0.44c0.108-0.119,0.267-0.179,0.426-0.161c19.561,2.215,32.405,9.023,38.176,20.233
				c8.588,16.682-1.507,38.037-3.464,41.872c1.437,0.27,2.853,0.406,4.219,0.406c0.001,0,0.002,0,0.003,0
				c12.998-0.001,18.815-12.284,18.873-12.408c0.073-0.159,0.225-0.268,0.399-0.288c0.172-0.019,0.345,0.054,0.452,0.193
				c14.037,18.357,19.043,35.889,14.877,52.108c-7.118,27.716-39.053,42.074-39.375,42.217c-0.135,0.061-0.291,0.057-0.425-0.011
				c-13.312-6.661-22.244-45.654-23.716-52.798c-21.732,26.35-18.397,56.007-18.111,58.212c0.027,0.062,0.043,0.131,0.043,0.203
				C132.953,225.78,132.729,226.004,132.453,226.004z M141.556,76.634c0.806,4.957,4.515,35.918-23.377,59.345
				c-14.372,12.071-20.815,31.898-16.813,51.744c3.662,18.163,15.028,31.96,30.48,37.068c-0.528-5.085-2.384-33.788,19.08-59.146
				c0.124-0.146,0.321-0.209,0.509-0.16c0.186,0.049,0.328,0.201,0.364,0.39c0.021,0.112,2.282,11.597,6.379,24.045
				c5.237,15.91,11.041,25.915,16.797,28.965c2.802-1.302,31.907-15.401,38.597-41.457c4.036-15.722-0.752-32.75-14.23-50.622
				c-1.517,2.728-7.663,12.268-19.404,12.27c-0.001,0-0.002,0-0.003,0c-1.642,0-3.35-0.188-5.076-0.559
				c-0.155-0.033-0.285-0.138-0.351-0.282c-0.065-0.144-0.059-0.311,0.018-0.449c0.131-0.235,12.943-23.709,3.763-41.535
				C172.742,85.484,160.387,78.886,141.556,76.634z"/>
		</g>
	</g>
</g>
<g>
</g>
<g>
</g>
<g>
</g>
<g>
</g>
<g>
</g>
<g>
</g>
<g>
</g>
<g>
</g>
<g>
</g>
<g>
</g>
<g>
</g>
<g>
</g>
<g>
</g>
<g>
</g>
<g>
</g>
</svg>
