<?xml version="1.0" encoding="iso-8859-1"?>
<!-- Generator: Adobe Illustrator 18.1.1, SVG Export Plug-In . SVG Version: 6.00 Build 0)  -->
<svg version="1.1" id="Capa_1" xmlns="http://www.w3.org/2000/svg" xmlns:xlink="http://www.w3.org/1999/xlink" x="0px" y="0px"
	 viewBox="0 0 478.165 478.165" style="enable-background:new 0 0 478.165 478.165;" xml:space="preserve">
<g>
	<path id="Feedburner_3_" d="M392.673,314.214c1.375-7.033,2.331-14.325,2.331-21.458c0.398-89.875-48.574-124.901-100.315-154.945
		c14.943,78.817-33.312,127.431-93.661,110.337C289.09,104.18,161.042,103.901,200.112,0
		C140.023,42.736,79.634,162.437,79.814,249.702c0.02,23.032,2.331,44.489,6.615,64.094c-43.274,17.333-70.509,41.979-70.509,69.174
		c-0.02,52.359,100.295,95.195,223.163,95.195s223.163-42.836,223.163-95.195C462.246,355.874,435.329,331.527,392.673,314.214z
		 M153.69,199.913c-16.616,75.132,27.973,131.097,70.948,131.575c48.514,0.418,77.144-44.888,90.971-104.32
		c25.701,19.645,38.931,46.98,40.684,75.012c-0.04,0-0.06,0-0.1-0.02c1.893,31.698-11.117,64.014-38.054,86.488
		c-0.08,0.259-0.179,0.359-0.239,0.418c-5.917,4.742-12.193,9.245-19.425,13.05c-0.558,0.359-1.096,0.737-1.913,0.916
		c-2.829,1.494-5.658,2.869-8.806,4.224c-0.717,0.398-1.614,0.797-2.49,0.996c-7.431,3.108-15.341,5.499-23.829,7.312
		c-1.255,0.159-2.351,0.418-3.666,0.518c-3.228,0.558-6.495,1.056-9.822,1.534c-1.315,0.299-2.57,0.398-3.945,0.438
		c-4.642,0.458-9.304,0.837-14.066,0.936c-3.427,0.02-6.774-0.06-10.022-0.239c-0.877-0.239-1.793-0.259-2.61-0.319
		c-2.809-0.159-5.579-0.538-8.328-1.016c-0.498-0.02-0.996-0.08-1.634-0.339c-3.287-0.578-6.575-1.375-9.822-2.072
		c-0.299-0.299-0.717-0.359-1.116-0.418c-3.048-0.897-5.937-1.853-8.886-3.048c-0.299-0.1-0.558-0.12-0.916-0.219
		c-39.807-15.779-68.896-54.571-67.282-108.404c-0.02,0-0.06,0-0.239,0.02C120.019,272.753,130.32,238.106,153.69,199.913z"/>
</g>
<g>
</g>
<g>
</g>
<g>
</g>
<g>
</g>
<g>
</g>
<g>
</g>
<g>
</g>
<g>
</g>
<g>
</g>
<g>
</g>
<g>
</g>
<g>
</g>
<g>
</g>
<g>
</g>
<g>
</g>
</svg>
