<?xml version="1.0" encoding="iso-8859-1"?>
<!-- Generator: Adobe Illustrator 16.0.0, SVG Export Plug-In . SVG Version: 6.00 Build 0)  -->
<!DOCTYPE svg PUBLIC "-//W3C//DTD SVG 1.1//EN" "http://www.w3.org/Graphics/SVG/1.1/DTD/svg11.dtd">
<svg version="1.1" id="Capa_1" xmlns="http://www.w3.org/2000/svg" xmlns:xlink="http://www.w3.org/1999/xlink" x="0px" y="0px"
	 width="621.121px" height="621.121px" viewBox="0 0 621.121 621.121" style="enable-background:new 0 0 621.121 621.121;"
	 xml:space="preserve">
<g>
	<path style="fill:#27241F;" d="M378.824,518.981c27.419-10.542,74.635-38.891,56.602-106.562
		c-12.43-46.965-48.827-68.031-74.701-100.144c-25.864-32.065-32.586-41.209-25.361-65.86c-34.047,28.05-39.792,49.6-31.648,83.589
		c8.144,34.037-0.967,37.857-12.932,40.75c-11.984,2.834-17.71-9.614-16.289-21.114c-18.668,12.003-76.645,42.186-57.967,108.264
		c13.895,35.933,46.466,59.408,85.272,66.613c5.925,0.815,12.505,1.214,19.094,1.385c-15.046,0.266-31.818-0.095-46.049-2.124
		c-56.867-10.505-104.6-44.921-124.965-97.574c-27.367-96.892,57.56-141.13,84.955-158.665
		c-2.114,16.857,6.305,35.089,23.874,30.875c17.559-4.224,30.889-9.803,18.953-59.669c-11.927-49.865-3.499-81.456,46.343-122.533
		c-10.543,36.137-0.721,49.496,37.203,96.564c37.915,47.026,91.265,77.901,109.516,146.705
		C499.252,466.381,416.474,506.543,378.824,518.981L378.824,518.981z M604.264,27.296H16.843C7.533,27.296,0,34.847,0,44.148
		v532.819c0,9.311,7.533,16.857,16.843,16.857h587.42c9.32,0,16.857-7.547,16.857-16.857V44.158
		C621.121,34.857,613.584,27.296,604.264,27.296L604.264,27.296z"/>
</g>
<g>
</g>
<g>
</g>
<g>
</g>
<g>
</g>
<g>
</g>
<g>
</g>
<g>
</g>
<g>
</g>
<g>
</g>
<g>
</g>
<g>
</g>
<g>
</g>
<g>
</g>
<g>
</g>
<g>
</g>
</svg>
