<?xml version="1.0" encoding="iso-8859-1"?>
<!-- Generator: Adobe Illustrator 16.0.0, SVG Export Plug-In . SVG Version: 6.00 Build 0)  -->
<!DOCTYPE svg PUBLIC "-//W3C//DTD SVG 1.1//EN" "http://www.w3.org/Graphics/SVG/1.1/DTD/svg11.dtd">
<svg version="1.1" id="Capa_1" xmlns="http://www.w3.org/2000/svg" xmlns:xlink="http://www.w3.org/1999/xlink" x="0px" y="0px"
	 width="634.173px" height="634.173px" viewBox="0 0 634.173 634.173" style="enable-background:new 0 0 634.173 634.173;"
	 xml:space="preserve">
<g>
	<g>
		<g>
			<path d="M618.497,27.861H15.695C7.021,27.861,0,34.901,0,43.576v549.881c0.049,2.781,1.113,12.836,13.57,12.836h17.918
				c13.492,0,13.001-15.549,13.001-15.549V85.876c0-7.458,6.058-13.492,13.507-13.492h518.18c7.468,0,13.497,6.034,13.497,13.492
				v510.498c0.137,3.014,1.265,9.938,9.336,9.938h24.759c8.227,0,10.074-6.593,10.404-10.988V43.576
				C634.192,34.901,627.172,27.861,618.497,27.861L618.497,27.861z"/>
		</g>
		<path d="M480.644,384.769c-18.633-70.27-73.129-101.786-111.822-149.825c-38.713-48.034-48.749-61.688-37.994-98.582
			c-50.883,41.946-59.484,74.188-47.305,125.091c12.194,50.917-1.434,56.645-19.342,60.943
			c-17.941,4.298-26.533-14.319-24.384-31.537c-27.953,17.922-114.686,63.083-86.723,162
			c20.781,53.757,69.525,88.882,127.581,99.638c14.519,2.041,31.663,2.411,47.023,2.168c-6.729-0.165-13.444-0.594-19.488-1.43
			c-39.622-7.352-72.904-31.322-87.073-68.013c-19.07-67.479,40.128-98.276,59.159-110.509c-1.444,11.727,4.4,24.428,16.648,21.529
			c12.229-2.946,21.511-6.846,13.206-41.592c-8.314-34.726-2.47-56.732,32.29-85.342c-7.371,25.143-0.506,34.493,25.906,67.226
			c26.432,32.791,63.607,54.321,76.299,102.243c18.428,69.093-29.787,98.052-57.822,108.808
			C425.233,534.857,509.758,493.897,480.644,384.769L480.644,384.769z"/>
	</g>
</g>
<g>
</g>
<g>
</g>
<g>
</g>
<g>
</g>
<g>
</g>
<g>
</g>
<g>
</g>
<g>
</g>
<g>
</g>
<g>
</g>
<g>
</g>
<g>
</g>
<g>
</g>
<g>
</g>
<g>
</g>
</svg>
