<?xml version="1.0" encoding="iso-8859-1"?>
<!-- Generator: Adobe Illustrator 19.0.0, SVG Export Plug-In . SVG Version: 6.00 Build 0)  -->
<svg version="1.1" id="Layer_1" xmlns="http://www.w3.org/2000/svg" xmlns:xlink="http://www.w3.org/1999/xlink" x="0px" y="0px"
	 viewBox="0 0 512 512" style="enable-background:new 0 0 512 512;" xml:space="preserve">
<g>
	<g>
		<path d="M490.48,215.893h-21.024c-11.866,0-21.519,9.654-21.519,21.52v4.231H290.666v-27.138
			c22.512-2.85,39.98-22.106,39.98-45.378v-24.223c0-41.057-33.402-74.459-74.459-74.459c-41.057,0-74.459,33.402-74.459,74.459
			v24.223c0,23.273,17.469,42.529,39.98,45.378v27.138H64.437v-4.231c0-11.867-9.654-21.52-21.52-21.52H21.52
			c-11.866,0-21.52,9.654-21.52,21.52v182.622c0,11.867,9.654,21.52,21.52,21.52h21.397c11.866,0,21.52-9.654,21.52-21.52v-4.231
			h383.5v4.231c0,11.867,9.654,21.52,21.519,21.52h21.023c11.866,0,21.52-9.654,21.52-21.52V237.412
			C512,225.546,502.346,215.893,490.48,215.893z M44.039,420.034L44.039,420.034c-0.001,0.618-0.504,1.122-1.123,1.122H21.52
			c-0.618,0-1.122-0.503-1.122-1.122V237.412c0-0.618,0.503-1.122,1.122-1.122h21.397c0.618,0,1.122,0.503,1.122,1.122V420.034z
			 M202.126,169.127v-11.651h5.181c5.633,0,10.199-4.567,10.199-10.199c0-5.632-4.566-10.199-10.199-10.199H202.7
			c3.804-26.113,26.336-46.235,53.488-46.235s49.683,20.122,53.488,46.235h-4.98c-5.633,0-10.199,4.567-10.199,10.199
			c0,5.632,4.566,10.199,10.199,10.199h5.555v11.651c0,13.982-11.375,25.357-25.357,25.357h-57.409
			C213.501,194.485,202.126,183.109,202.126,169.127z M270.268,214.883v26.761h-28.162v-26.761H270.268z M447.937,395.405h-383.5
			V262.042h383.5V395.405z M491.602,420.034c0,0.618-0.503,1.122-1.122,1.122h-21.024c-0.618,0-1.121-0.503-1.121-1.122V237.412
			c0-0.618,0.503-1.122,1.121-1.122h21.024c0.618,0,1.122,0.503,1.122,1.122V420.034z"/>
	</g>
</g>
<g>
	<g>
		<path d="M206.981,365.679h-3.732c-5.633,0-10.199,4.567-10.199,10.199s4.566,10.199,10.199,10.199h3.732
			c5.633,0,10.199-4.567,10.199-10.199S212.614,365.679,206.981,365.679z"/>
	</g>
</g>
<g>
	<g>
		<path d="M169.052,365.679h-82.99c-5.633,0-10.199,4.567-10.199,10.199s4.566,10.199,10.199,10.199h82.989
			c5.633,0,10.199-4.567,10.199-10.199S174.684,365.679,169.052,365.679z"/>
	</g>
</g>
<g>
	<g>
		<path d="M256,100.173c-5.633,0-10.199,4.567-10.199,10.199v32.805c0,5.632,4.566,10.199,10.199,10.199
			c5.633,0,10.199-4.567,10.199-10.199v-32.805C266.199,104.74,261.633,100.173,256,100.173z"/>
	</g>
</g>
<g>
</g>
<g>
</g>
<g>
</g>
<g>
</g>
<g>
</g>
<g>
</g>
<g>
</g>
<g>
</g>
<g>
</g>
<g>
</g>
<g>
</g>
<g>
</g>
<g>
</g>
<g>
</g>
<g>
</g>
</svg>
