<?xml version="1.0" encoding="iso-8859-1"?>
<!-- Generator: Adobe Illustrator 19.0.0, SVG Export Plug-In . SVG Version: 6.00 Build 0)  -->
<svg version="1.1" id="Capa_1" xmlns="http://www.w3.org/2000/svg" xmlns:xlink="http://www.w3.org/1999/xlink" x="0px" y="0px"
	 viewBox="0 0 512 512" style="enable-background:new 0 0 512 512;" xml:space="preserve">
<g>
	<g>
		<path d="M65.362,0H38.128C16.749,0,0,16.749,0,38.128v163.404c0,21.379,16.749,38.128,38.128,38.128h27.234
			c21.379,0,38.128-16.749,38.128-38.128V38.128C103.489,16.749,86.74,0,65.362,0z M81.702,201.532c0,9.162-7.179,16.34-16.34,16.34
			H38.128c-9.162,0-16.34-7.179-16.34-16.34V38.128c0-9.162,7.179-16.34,16.34-16.34h27.234c9.162,0,16.34,7.179,16.34,16.34
			V201.532z"/>
	</g>
</g>
<g>
	<g>
		<path d="M201.532,27.234H92.596c-6.013,0-10.894,4.88-10.894,10.894c0,6.013,4.88,10.894,10.894,10.894h108.936
			c144.166,0,261.447,117.286,261.447,261.447v98.043H321.362v-98.043c0-66.075-53.755-119.83-119.83-119.83H92.596
			c-6.013,0-10.894,4.88-10.894,10.894c0,6.013,4.88,10.894,10.894,10.894h108.936c54.06,0,98.043,43.983,98.043,98.043v108.936
			c0,6.013,4.88,10.894,10.894,10.894h163.404c6.013,0,10.894-4.88,10.894-10.894V310.468
			C484.766,154.292,357.708,27.234,201.532,27.234z"/>
	</g>
</g>
<g>
	<g>
		<path d="M473.872,408.511H310.468c-21.379,0-38.128,16.749-38.128,38.128v27.234c0,21.379,16.749,38.128,38.128,38.128h163.404
			C495.251,512,512,495.251,512,473.872v-27.234C512,425.26,495.251,408.511,473.872,408.511z M490.213,473.872
			c0,9.167-7.173,16.34-16.34,16.34H310.468c-9.167,0-16.34-7.173-16.34-16.34v-27.234c0-9.167,7.173-16.34,16.34-16.34h163.404
			c9.167,0,16.34,7.173,16.34,16.34V473.872z"/>
	</g>
</g>
<g>
	<g>
		<path d="M92.596,59.915H65.362c-3.007,0-5.447,2.44-5.447,5.447v108.936c0,3.007,2.44,5.447,5.447,5.447h27.234
			c3.007,0,5.447-2.44,5.447-5.447V65.362C98.043,62.355,95.602,59.915,92.596,59.915z M87.149,168.851h-16.34V70.809h16.34V168.851
			z"/>
	</g>
</g>
<g>
	<g>
		<path d="M446.638,413.957H337.702c-3.012,0-5.447,2.435-5.447,5.447v27.234c0,3.012,2.435,5.447,5.447,5.447h108.936
			c3.012,0,5.447-2.435,5.447-5.447v-27.234C452.085,416.392,449.65,413.957,446.638,413.957z M441.191,441.191h-98.043v-16.34
			h98.043V441.191z"/>
	</g>
</g>
<g>
	<g>
		<path d="M201.532,87.149H92.596c-3.007,0-5.447,2.44-5.447,5.447s2.44,5.447,5.447,5.447h108.936
			c117.134,0,212.426,95.292,212.426,212.426v108.936c0,3.012,2.435,5.447,5.447,5.447s5.447-2.435,5.447-5.447V310.468
			C424.851,187.332,324.668,87.149,201.532,87.149z"/>
	</g>
</g>
<g>
</g>
<g>
</g>
<g>
</g>
<g>
</g>
<g>
</g>
<g>
</g>
<g>
</g>
<g>
</g>
<g>
</g>
<g>
</g>
<g>
</g>
<g>
</g>
<g>
</g>
<g>
</g>
<g>
</g>
</svg>
