<?xml version="1.0" encoding="utf-8"?>
<svg x="0px" y="0px" viewBox="0 0 100 125" xmlns="http://www.w3.org/2000/svg">
  <path d="M 93.694 44.259 C 90.104 42.768 85.889 43.518 83.076 46.12 L 52.613 66.557 L 52.613 30.796 L 78.271 30.796 C 79.715 30.796 80.883 29.628 80.883 28.184 C 80.883 26.74 79.715 25.571 78.271 25.571 L 50 25.571 C 48.556 25.571 47.387 26.74 47.387 28.184 L 47.387 66.557 L 16.924 46.117 C 14.107 43.511 9.882 42.759 6.285 44.271 C 2.599 45.838 0.217 49.44 0.217 53.446 L 0.217 89.473 C 0.217 93.476 2.598 97.078 6.308 98.654 C 7.549 99.168 8.851 99.429 10.178 99.429 C 12.696 99.429 15.083 98.494 16.924 96.79 L 50 74.602 L 83.076 96.796 C 84.916 98.497 87.3 99.429 89.822 99.429 C 91.162 99.429 92.468 99.166 93.715 98.642 C 97.401 97.074 99.783 93.474 99.783 89.466 L 99.783 53.439 C 99.783 49.435 97.401 45.835 93.694 44.259 Z M 13.832 92.574 C 13.701 92.661 13.578 92.76 13.466 92.87 C 12.127 94.173 10.042 94.544 8.331 93.835 C 6.578 93.087 5.444 91.375 5.444 89.472 L 5.444 53.446 C 5.444 51.539 6.578 49.825 8.321 49.083 C 8.913 48.834 9.539 48.709 10.18 48.709 C 11.418 48.709 12.585 49.181 13.466 50.038 C 13.579 50.147 13.701 50.247 13.832 50.334 L 45.313 71.456 L 13.832 92.574 Z M 94.558 89.466 C 94.558 91.374 93.424 93.087 91.681 93.828 C 89.942 94.558 87.873 94.174 86.535 92.873 C 86.422 92.763 86.3 92.664 86.17 92.577 L 54.691 71.456 L 86.17 50.337 C 86.3 50.25 86.424 50.151 86.535 50.041 C 87.878 48.738 89.962 48.369 91.67 49.076 C 93.424 49.822 94.558 51.536 94.558 53.439 L 94.558 89.466 Z"/>
</svg>