<?xml version="1.0" encoding="iso-8859-1"?>
<!-- Generator: Adobe Illustrator 18.0.0, SVG Export Plug-In . SVG Version: 6.00 Build 0)  -->
<!DOCTYPE svg PUBLIC "-//W3C//DTD SVG 1.1//EN" "http://www.w3.org/Graphics/SVG/1.1/DTD/svg11.dtd">
<svg version="1.1" id="Capa_1" xmlns="http://www.w3.org/2000/svg" xmlns:xlink="http://www.w3.org/1999/xlink" x="0px" y="0px"
	 viewBox="0 0 298.018 298.018" style="enable-background:new 0 0 298.018 298.018;" xml:space="preserve">
<g>
	<path d="M276.518,0.54H21.5C9.644,0.54,0,10.185,0,22.04v3.45c0,9.853,6.669,18.157,15.724,20.689v181.996
		c0,4.143,3.358,7.5,7.5,7.5h118.285v15.443c-9.451,3.149-16.287,12.073-16.287,22.569c0,13.117,10.671,23.789,23.787,23.789
		c13.116,0,23.787-10.672,23.787-23.789c0-10.496-6.836-19.42-16.287-22.569v-15.443h118.285c4.142,0,7.5-3.357,7.5-7.5V46.18
		c9.055-2.532,15.724-10.837,15.724-20.689v-3.45C298.018,10.185,288.373,0.54,276.518,0.54z M149.009,282.478
		c-4.846,0-8.787-3.942-8.787-8.789c0-4.846,3.941-8.788,8.787-8.788s8.787,3.942,8.787,8.788
		C157.796,278.535,153.855,282.478,149.009,282.478z M267.294,220.676H30.724V46.99h236.57V220.676z M283.018,25.49
		c0,3.584-2.916,6.5-6.5,6.5H21.5c-3.584,0-6.5-2.916-6.5-6.5v-3.45c0-3.584,2.916-6.5,6.5-6.5h255.018c3.584,0,6.5,2.916,6.5,6.5
		V25.49z"/>
	<path d="M51.287,203.099c1.919,0,3.839-0.732,5.304-2.197l28.75-28.751l27.741,13.869c3.385,1.692,7.497,0.598,9.594-2.548
		l28.413-42.622l42.621,28.415c1.829,1.22,4.101,1.573,6.217,0.973c2.114-0.604,3.857-2.104,4.768-4.104l29.325-64.396l5.865,13.095
		c1.247,2.785,3.983,4.437,6.849,4.437c1.025,0,2.066-0.211,3.061-0.657c3.78-1.693,5.473-6.13,3.779-9.91l-13.518-30.182
		c-0.813-1.815-2.314-3.233-4.173-3.942c-1.858-0.707-3.923-0.649-5.738,0.163L199.97,88.258c-3.78,1.693-5.472,6.131-3.778,9.911
		c1.695,3.781,6.131,5.472,9.911,3.778l14.247-6.383l-25.652,56.33l-41.528-27.687c-1.655-1.102-3.682-1.504-5.631-1.114
		c-1.951,0.391-3.666,1.539-4.77,3.194l-28.901,43.354l-26.654-13.326c-2.886-1.444-6.373-0.879-8.657,1.405l-32.572,32.574
		c-2.929,2.929-2.929,7.678,0.001,10.606C47.448,202.366,49.368,203.099,51.287,203.099z"/>
</g>
<g>
</g>
<g>
</g>
<g>
</g>
<g>
</g>
<g>
</g>
<g>
</g>
<g>
</g>
<g>
</g>
<g>
</g>
<g>
</g>
<g>
</g>
<g>
</g>
<g>
</g>
<g>
</g>
<g>
</g>
</svg>
