<?xml version="1.0" encoding="iso-8859-1"?>
<!-- Generator: Adobe Illustrator 19.0.0, SVG Export Plug-In . SVG Version: 6.00 Build 0)  -->
<svg version="1.1" id="Capa_1" xmlns="http://www.w3.org/2000/svg" xmlns:xlink="http://www.w3.org/1999/xlink" x="0px" y="0px"
	 viewBox="0 0 480 480" style="enable-background:new 0 0 480 480;" xml:space="preserve">
<g>
	<g>
		<path d="M32,400v-28.88l73.12-80.48c9.031,7.5,22.209,7.193,30.88-0.72l56.56,42.4c2.815,12.952,15.597,21.171,28.549,18.356
			C231.859,348.34,239.644,338.995,240,328c0.003-1.48-0.158-2.956-0.48-4.4l62.72-69.68c3.081,1.339,6.4,2.046,9.76,2.08
			c5.665-0.037,11.135-2.078,15.44-5.76l58.64,52.08c-1.348,3.051-2.055,6.345-2.08,9.68c0,13.255,10.745,24,24,24s24-10.745,24-24
			s-10.745-24-24-24c-3.791,0.035-7.519,0.967-10.88,2.72L336,236.08c0.118-1.357,0.118-2.723,0-4.08c0-13.255-10.745-24-24-24
			s-24,10.745-24,24c0.029,3.766,0.962,7.47,2.72,10.8l-59.84,66.48c-4.223-3.388-9.466-5.249-14.88-5.28
			c-8.116,0.023-15.67,4.146-20.08,10.96L144,275.68c0.122-1.224,0.122-2.456,0-3.68c0-13.255-10.745-24-24-24s-24,10.745-24,24
			c-0.003,1.48,0.158,2.956,0.48,4.4L32,347.28v-88l77.2-70.16c3.33,1.78,7.026,2.766,10.8,2.88c13.255,0,24-10.745,24-24
			c0.003-1.506-0.158-3.008-0.48-4.48L203.92,96c1.357,0.118,2.723,0.118,4.08,0c6.442-0.005,12.611-2.6,17.12-7.2l64,21.28
			c3.728,12.72,17.061,20.009,29.781,16.281c11.192-3.28,18.406-14.132,17.099-25.721l56-35.04
			c9.88,8.836,25.053,7.989,33.888-1.892s7.989-25.053-1.892-33.888s-25.053-7.989-33.888,1.892
			C386.107,36.186,383.927,41.998,384,48c-0.078,1.119-0.078,2.241,0,3.36L328,86.4c-9.771-8.956-24.953-8.295-33.909,1.476
			c-1.587,1.732-2.912,3.687-3.931,5.804L232,74.16c0.039-0.719,0.039-1.44,0-2.16c0.087-13.255-10.587-24.07-23.842-24.157
			c-13.255-0.087-24.07,10.587-24.157,23.842c-0.038,5.773,2.007,11.367,5.759,15.755l-54.96,61.84
			c-4.182-3.405-9.407-5.269-14.8-5.28c-13.255,0-24,10.745-24,24c0.005,3.371,0.742,6.701,2.16,9.76L32,237.92V0H16v16H0v16h16v80
			H0v16h16v80H0v16h16v80H0v16h16v88c0,4.418,3.582,8,8,8h88v16h16v-16h80v16h16v-16h80v16h16v-16h80v16h16v-16h64v-16H32z M408,304
			c4.418,0,8,3.582,8,8s-3.582,8-8,8s-8-3.582-8-8S403.582,304,408,304z M312,224c4.418,0,8,3.582,8,8s-3.582,8-8,8s-8-3.582-8-8
			S307.582,224,312,224z M216,320c4.418,0,8,3.582,8,8s-3.582,8-8,8s-8-3.582-8-8S211.582,320,216,320z M120,264
			c4.418,0,8,3.582,8,8s-3.582,8-8,8s-8-3.582-8-8S115.582,264,120,264z M408,40c4.418,0,8,3.582,8,8s-3.582,8-8,8s-8-3.582-8-8
			S403.582,40,408,40z M312,96c4.418,0,8,3.582,8,8s-3.582,8-8,8s-8-3.582-8-8S307.582,96,312,96z M208,64c4.418,0,8,3.582,8,8
			s-3.582,8-8,8s-8-3.582-8-8S203.582,64,208,64z M120,160c4.418,0,8,3.582,8,8s-3.582,8-8,8s-8-3.582-8-8S115.582,160,120,160z"/>
	</g>
</g>
<g>
	<g>
		<rect x="152" y="464" width="16" height="16"/>
	</g>
</g>
<g>
	<g>
		<rect x="184" y="464" width="16" height="16"/>
	</g>
</g>
<g>
	<g>
		<rect x="216" y="464" width="16" height="16"/>
	</g>
</g>
<g>
	<g>
		<rect x="248" y="464" width="16" height="16"/>
	</g>
</g>
<g>
	<g>
		<rect x="280" y="464" width="16" height="16"/>
	</g>
</g>
<g>
	<g>
		<rect x="312" y="464" width="16" height="16"/>
	</g>
</g>
<g>
</g>
<g>
</g>
<g>
</g>
<g>
</g>
<g>
</g>
<g>
</g>
<g>
</g>
<g>
</g>
<g>
</g>
<g>
</g>
<g>
</g>
<g>
</g>
<g>
</g>
<g>
</g>
<g>
</g>
</svg>
