<?xml version="1.0" encoding="iso-8859-1"?>
<!-- Generator: Adobe Illustrator 18.0.0, SVG Export Plug-In . SVG Version: 6.00 Build 0)  -->
<!DOCTYPE svg PUBLIC "-//W3C//DTD SVG 1.1//EN" "http://www.w3.org/Graphics/SVG/1.1/DTD/svg11.dtd">
<svg version="1.1" id="Capa_1" xmlns="http://www.w3.org/2000/svg" xmlns:xlink="http://www.w3.org/1999/xlink" x="0px" y="0px"
	 viewBox="0 0 60 60" style="enable-background:new 0 0 60 60;" xml:space="preserve">
<g>
	<path d="M60,4H31V1c0-0.553-0.447-1-1-1s-1,0.447-1,1v3H0v42h27.586L15.293,58.293c-0.391,0.391-0.391,1.023,0,1.414
		C15.488,59.902,15.744,60,16,60s0.512-0.098,0.707-0.293L29,47.414V57c0,0.553,0.447,1,1,1s1-0.447,1-1v-9.586l12.293,12.293
		C43.488,59.902,43.744,60,44,60s0.512-0.098,0.707-0.293c0.391-0.391,0.391-1.023,0-1.414L32.414,46H60V4z M58,44H2V6h56V44z"/>
	<path d="M36,42c0.553,0,1-0.447,1-1v-3c0-0.553-0.447-1-1-1s-1,0.447-1,1v3C35,41.553,35.447,42,36,42z"/>
	<path d="M40,33c-0.553,0-1,0.447-1,1v7c0,0.553,0.447,1,1,1s1-0.447,1-1v-7C41,33.447,40.553,33,40,33z"/>
	<path d="M44,35c-0.553,0-1,0.447-1,1v5c0,0.553,0.447,1,1,1s1-0.447,1-1v-5C45,35.447,44.553,35,44,35z"/>
	<path d="M48,28c-0.553,0-1,0.447-1,1v12c0,0.553,0.447,1,1,1s1-0.447,1-1V29C49,28.447,48.553,28,48,28z"/>
	<path d="M52,32c-0.553,0-1,0.447-1,1v8c0,0.553,0.447,1,1,1s1-0.447,1-1v-8C53,32.447,52.553,32,52,32z"/>
	<path d="M8,38h10c0.553,0,1-0.447,1-1s-0.447-1-1-1H8c-0.553,0-1,0.447-1,1S7.447,38,8,38z"/>
	<path d="M8,42h15c0.553,0,1-0.447,1-1s-0.447-1-1-1H8c-0.553,0-1,0.447-1,1S7.447,42,8,42z"/>
	<path d="M39,15h8c0.553,0,1-0.447,1-1s-0.447-1-1-1h-8c-0.553,0-1,0.447-1,1S38.447,15,39,15z"/>
	<path d="M51.3,13.29C51.109,13.47,51,13.729,51,14c0,0.27,0.109,0.53,0.29,0.7C51.479,14.89,51.729,15,52,15
		c0.26,0,0.52-0.11,0.71-0.29C52.89,14.52,53,14.26,53,14s-0.11-0.521-0.29-0.71C52.33,12.92,51.649,12.93,51.3,13.29z"/>
	<path d="M49,10h3c0.553,0,1-0.447,1-1s-0.447-1-1-1h-3c-0.553,0-1,0.447-1,1S48.447,10,49,10z"/>
	<path d="M39,10h2c0.553,0,1-0.447,1-1s-0.447-1-1-1h-2c-0.553,0-1,0.447-1,1S38.447,10,39,10z"/>
	<path d="M45,10c0.27,0,0.52-0.11,0.71-0.29C45.89,9.52,46,9.27,46,9c0-0.271-0.11-0.521-0.29-0.71c-0.37-0.37-1.061-0.37-1.42,0
		C44.109,8.479,44,8.729,44,9c0,0.27,0.109,0.52,0.29,0.71C44.479,9.89,44.729,10,45,10z"/>
	<path d="M26.85,27.385c1.636-1.72,2.742-3.942,3.066-6.41l-9.47,0.006L26.85,27.385z"/>
	<path d="M18.525,30.975c2.555,0,4.911-0.848,6.822-2.264l-7.637-7.733l-0.685-0.003v-0.919c0.001-0.063,0.007-0.872,0.001-1.046
		L17.025,8.084c-5.633,0.739-10,5.559-10,11.391C7.025,25.815,12.185,30.975,18.525,30.975z"/>
	<path d="M19.025,8v10.975H30C29.743,13.034,24.966,8.257,19.025,8z"/>
</g>
<g>
</g>
<g>
</g>
<g>
</g>
<g>
</g>
<g>
</g>
<g>
</g>
<g>
</g>
<g>
</g>
<g>
</g>
<g>
</g>
<g>
</g>
<g>
</g>
<g>
</g>
<g>
</g>
<g>
</g>
</svg>
